<?xml version="1.0" encoding="UTF-8" standalone="no"?>
<!DOCTYPE svg PUBLIC "-//W3C//DTD SVG 1.1//EN"
 "http://www.w3.org/Graphics/SVG/1.1/DTD/svg11.dtd">
<!-- Generated by graphviz version 2.40.1 (0)
 -->
<!-- Title: profiles Pages: 1 -->
<svg width="274pt" height="337pt"
 viewBox="0.00 0.00 274.00 337.00" xmlns="http://www.w3.org/2000/svg" xmlns:xlink="http://www.w3.org/1999/xlink">
<g id="graph0" class="graph" transform="scale(1 1) rotate(0) translate(4 333)">
<title>profiles</title>
<polygon fill="#ffffff" stroke="transparent" points="-4,4 -4,-333 270,-333 270,4 -4,4"/>
<!-- profiles -->
<g id="node1" class="node">
<title>profiles</title>
<polygon fill="#efefef" stroke="transparent" points="46,-248.5 46,-282.5 220,-282.5 220,-248.5 46,-248.5"/>
<polygon fill="none" stroke="#000000" points="46,-248.5 46,-282.5 220,-282.5 220,-248.5 46,-248.5"/>
<text text-anchor="start" x="53" y="-262.1" font-family="Arial Bold" font-size="18.00" fill="#000000">profiles</text>
<text text-anchor="start" x="114" y="-262.1" font-family="Arial" font-size="14.00" fill="#000000"> </text>
<text text-anchor="start" x="122" y="-262.1" font-family="Arial" font-size="14.00" fill="#666666">[BASE TABLE]</text>
<polygon fill="none" stroke="#000000" points="46,-219.5 46,-248.5 220,-248.5 220,-219.5 46,-219.5"/>
<text text-anchor="start" x="53" y="-231.3" font-family="Arial" font-size="14.00" fill="#000000">id </text>
<text text-anchor="start" x="76" y="-231.3" font-family="Arial" font-size="14.00" fill="#666666">[int(11)]</text>
<polygon fill="none" stroke="#000000" points="46,-190.5 46,-219.5 220,-219.5 220,-190.5 46,-190.5"/>
<text text-anchor="start" x="53" y="-202.3" font-family="Arial" font-size="14.00" fill="#000000">name </text>
<text text-anchor="start" x="91" y="-202.3" font-family="Arial" font-size="14.00" fill="#666666">[varchar(255)]</text>
<polygon fill="none" stroke="#000000" points="46,-161.5 46,-190.5 220,-190.5 220,-161.5 46,-161.5"/>
<text text-anchor="start" x="53" y="-173.3" font-family="Arial" font-size="14.00" fill="#000000">introduction </text>
<text text-anchor="start" x="151" y="-173.3" font-family="Arial" font-size="14.00" fill="#666666">[text]</text>
<polygon fill="none" stroke="#000000" points="46,-132.5 46,-161.5 220,-161.5 220,-132.5 46,-132.5"/>
<text text-anchor="start" x="53" y="-144.3" font-family="Arial" font-size="14.00" fill="#000000">sex </text>
<text text-anchor="start" x="84" y="-144.3" font-family="Arial" font-size="14.00" fill="#666666">[int(11)]</text>
<polygon fill="none" stroke="#000000" points="46,-103.5 46,-132.5 220,-132.5 220,-103.5 46,-103.5"/>
<text text-anchor="start" x="53" y="-115.3" font-family="Arial" font-size="14.00" fill="#000000">user_id </text>
<text text-anchor="start" x="114" y="-115.3" font-family="Arial" font-size="14.00" fill="#666666">[int(11)]</text>
<polygon fill="none" stroke="#000000" points="46,-74.5 46,-103.5 220,-103.5 220,-74.5 46,-74.5"/>
<text text-anchor="start" x="53" y="-86.3" font-family="Arial" font-size="14.00" fill="#000000">created_at </text>
<text text-anchor="start" x="136" y="-86.3" font-family="Arial" font-size="14.00" fill="#666666">[datetime]</text>
<polygon fill="none" stroke="#000000" points="46,-45.5 46,-74.5 220,-74.5 220,-45.5 46,-45.5"/>
<text text-anchor="start" x="53" y="-57.3" font-family="Arial" font-size="14.00" fill="#000000">updated_at </text>
<text text-anchor="start" x="136" y="-57.3" font-family="Arial" font-size="14.00" fill="#666666">[datetime]</text>
<polygon fill="none" stroke="#000000" stroke-width="3" points="44.5,-44.5 44.5,-284.5 221.5,-284.5 221.5,-44.5 44.5,-44.5"/>
</g>
</g>
</svg>
