<?xml version="1.0" encoding="UTF-8" standalone="no"?>
<!DOCTYPE svg PUBLIC "-//W3C//DTD SVG 1.1//EN"
 "http://www.w3.org/Graphics/SVG/1.1/DTD/svg11.dtd">
<!-- Generated by graphviz version 2.40.1 (0)
 -->
<!-- Title: profile_DB Pages: 1 -->
<svg width="268pt" height="331pt"
 viewBox="0.00 0.00 268.00 331.00" xmlns="http://www.w3.org/2000/svg" xmlns:xlink="http://www.w3.org/1999/xlink">
<g id="graph0" class="graph" transform="scale(1 1) rotate(0) translate(4 327)">
<title>profile_DB</title>
<polygon fill="#ffffff" stroke="transparent" points="-4,4 -4,-327 264,-327 264,4 -4,4"/>
<!-- profiles -->
<g id="node1" class="node">
<title>profiles</title>
<polygon fill="#efefef" stroke="transparent" points="43,-245.5 43,-279.5 217,-279.5 217,-245.5 43,-245.5"/>
<polygon fill="none" stroke="#000000" points="43,-245.5 43,-279.5 217,-279.5 217,-245.5 43,-245.5"/>
<text text-anchor="start" x="50" y="-259.1" font-family="Arial Bold" font-size="18.00" fill="#000000">profiles</text>
<text text-anchor="start" x="111" y="-259.1" font-family="Arial" font-size="14.00" fill="#000000"> </text>
<text text-anchor="start" x="119" y="-259.1" font-family="Arial" font-size="14.00" fill="#666666">[BASE TABLE]</text>
<polygon fill="none" stroke="#000000" points="43,-216.5 43,-245.5 217,-245.5 217,-216.5 43,-216.5"/>
<text text-anchor="start" x="50" y="-228.3" font-family="Arial" font-size="14.00" fill="#000000">id </text>
<text text-anchor="start" x="73" y="-228.3" font-family="Arial" font-size="14.00" fill="#666666">[int(11)]</text>
<polygon fill="none" stroke="#000000" points="43,-187.5 43,-216.5 217,-216.5 217,-187.5 43,-187.5"/>
<text text-anchor="start" x="50" y="-199.3" font-family="Arial" font-size="14.00" fill="#000000">name </text>
<text text-anchor="start" x="88" y="-199.3" font-family="Arial" font-size="14.00" fill="#666666">[varchar(255)]</text>
<polygon fill="none" stroke="#000000" points="43,-158.5 43,-187.5 217,-187.5 217,-158.5 43,-158.5"/>
<text text-anchor="start" x="50" y="-170.3" font-family="Arial" font-size="14.00" fill="#000000">introduction </text>
<text text-anchor="start" x="148" y="-170.3" font-family="Arial" font-size="14.00" fill="#666666">[text]</text>
<polygon fill="none" stroke="#000000" points="43,-129.5 43,-158.5 217,-158.5 217,-129.5 43,-129.5"/>
<text text-anchor="start" x="50" y="-141.3" font-family="Arial" font-size="14.00" fill="#000000">sex </text>
<text text-anchor="start" x="81" y="-141.3" font-family="Arial" font-size="14.00" fill="#666666">[int(11)]</text>
<polygon fill="none" stroke="#000000" points="43,-100.5 43,-129.5 217,-129.5 217,-100.5 43,-100.5"/>
<text text-anchor="start" x="50" y="-112.3" font-family="Arial" font-size="14.00" fill="#000000">user_id </text>
<text text-anchor="start" x="111" y="-112.3" font-family="Arial" font-size="14.00" fill="#666666">[int(11)]</text>
<polygon fill="none" stroke="#000000" points="43,-71.5 43,-100.5 217,-100.5 217,-71.5 43,-71.5"/>
<text text-anchor="start" x="50" y="-83.3" font-family="Arial" font-size="14.00" fill="#000000">created_at </text>
<text text-anchor="start" x="133" y="-83.3" font-family="Arial" font-size="14.00" fill="#666666">[datetime]</text>
<polygon fill="none" stroke="#000000" points="43,-42.5 43,-71.5 217,-71.5 217,-42.5 43,-42.5"/>
<text text-anchor="start" x="50" y="-54.3" font-family="Arial" font-size="14.00" fill="#000000">updated_at </text>
<text text-anchor="start" x="133" y="-54.3" font-family="Arial" font-size="14.00" fill="#666666">[datetime]</text>
</g>
</g>
</svg>
